<mxfile host="app.diagrams.net" agent="Mozilla/5.0 (Windows NT 10.0; Win64; x64) AppleWebKit/537.36 (KHTML, like Gecko) Chrome/130.0.0.0 Safari/537.36 Edg/130.0.0.0" version="24.8.3">
  <diagram name="Page-1" id="NFq9jXM3TjJxLlXp0oG2">
    <mxGraphModel dx="1679" dy="893" grid="1" gridSize="10" guides="1" tooltips="1" connect="1" arrows="1" fold="1" page="1" pageScale="1" pageWidth="850" pageHeight="1100" math="0" shadow="0">
      <root>
        <mxCell id="0" />
        <mxCell id="1" parent="0" />
        <mxCell id="zgTsNmEp1greh_2oPF4o-1" value="Mulai" style="whiteSpace=wrap;strokeWidth=2;" vertex="1" parent="1">
          <mxGeometry x="560" y="20" width="99" height="48" as="geometry" />
        </mxCell>
        <mxCell id="zgTsNmEp1greh_2oPF4o-2" value="Inisialisasi Serial dan Output GPIO" style="whiteSpace=wrap;strokeWidth=2;" vertex="1" parent="1">
          <mxGeometry x="505" y="118" width="209" height="66" as="geometry" />
        </mxCell>
        <mxCell id="zgTsNmEp1greh_2oPF4o-3" value="WiFiManager: Koneksi WiFi atau Konfigurasi Access Point" style="whiteSpace=wrap;strokeWidth=2;" vertex="1" parent="1">
          <mxGeometry x="484" y="234" width="252" height="83" as="geometry" />
        </mxCell>
        <mxCell id="zgTsNmEp1greh_2oPF4o-4" value="Mulai Web Server" style="whiteSpace=wrap;strokeWidth=2;" vertex="1" parent="1">
          <mxGeometry x="517" y="367" width="185" height="48" as="geometry" />
        </mxCell>
        <mxCell id="zgTsNmEp1greh_2oPF4o-5" value="Client Baru Terkoneksi?" style="rhombus;strokeWidth=2;whiteSpace=wrap;" vertex="1" parent="1">
          <mxGeometry x="503" y="465" width="214" height="214" as="geometry" />
        </mxCell>
        <mxCell id="zgTsNmEp1greh_2oPF4o-6" value="Baca Permintaan Client" style="whiteSpace=wrap;strokeWidth=2;" vertex="1" parent="1">
          <mxGeometry x="133" y="751" width="228" height="48" as="geometry" />
        </mxCell>
        <mxCell id="zgTsNmEp1greh_2oPF4o-7" value="Permintaan HTTP Terdeteksi?" style="rhombus;strokeWidth=2;whiteSpace=wrap;" vertex="1" parent="1">
          <mxGeometry x="317" y="849" width="190" height="190" as="geometry" />
        </mxCell>
        <mxCell id="zgTsNmEp1greh_2oPF4o-8" value="Request URL?" style="rhombus;strokeWidth=2;whiteSpace=wrap;" vertex="1" parent="1">
          <mxGeometry x="341" y="1112" width="143" height="143" as="geometry" />
        </mxCell>
        <mxCell id="zgTsNmEp1greh_2oPF4o-9" value="Set GPIO 5 ON" style="whiteSpace=wrap;strokeWidth=2;" vertex="1" parent="1">
          <mxGeometry x="20" y="1327" width="162" height="48" as="geometry" />
        </mxCell>
        <mxCell id="zgTsNmEp1greh_2oPF4o-10" value="Set GPIO 5 OFF" style="whiteSpace=wrap;strokeWidth=2;" vertex="1" parent="1">
          <mxGeometry x="232" y="1327" width="169" height="48" as="geometry" />
        </mxCell>
        <mxCell id="zgTsNmEp1greh_2oPF4o-11" value="Set GPIO 4 ON" style="whiteSpace=wrap;strokeWidth=2;" vertex="1" parent="1">
          <mxGeometry x="450" y="1327" width="162" height="48" as="geometry" />
        </mxCell>
        <mxCell id="zgTsNmEp1greh_2oPF4o-12" value="Set GPIO 4 OFF" style="whiteSpace=wrap;strokeWidth=2;" vertex="1" parent="1">
          <mxGeometry x="662" y="1327" width="169" height="48" as="geometry" />
        </mxCell>
        <mxCell id="zgTsNmEp1greh_2oPF4o-13" value="Tampilkan Halaman Web" style="whiteSpace=wrap;strokeWidth=2;" vertex="1" parent="1">
          <mxGeometry x="305" y="1425" width="236" height="48" as="geometry" />
        </mxCell>
        <mxCell id="zgTsNmEp1greh_2oPF4o-14" value="Kirim HTML Response" style="whiteSpace=wrap;strokeWidth=2;" vertex="1" parent="1">
          <mxGeometry x="318" y="1523" width="211" height="48" as="geometry" />
        </mxCell>
        <mxCell id="zgTsNmEp1greh_2oPF4o-15" value="Tutup Koneksi Client" style="whiteSpace=wrap;strokeWidth=2;" vertex="1" parent="1">
          <mxGeometry x="492" y="1621" width="208" height="48" as="geometry" />
        </mxCell>
        <mxCell id="zgTsNmEp1greh_2oPF4o-16" value="Selesai" style="whiteSpace=wrap;strokeWidth=2;" vertex="1" parent="1">
          <mxGeometry x="618" y="751" width="109" height="48" as="geometry" />
        </mxCell>
        <mxCell id="zgTsNmEp1greh_2oPF4o-17" value="" style="curved=1;startArrow=none;endArrow=block;exitX=0.5;exitY=1;entryX=0.5;entryY=0;rounded=0;" edge="1" parent="1" source="zgTsNmEp1greh_2oPF4o-1" target="zgTsNmEp1greh_2oPF4o-2">
          <mxGeometry relative="1" as="geometry">
            <Array as="points" />
          </mxGeometry>
        </mxCell>
        <mxCell id="zgTsNmEp1greh_2oPF4o-18" value="" style="curved=1;startArrow=none;endArrow=block;exitX=0.5;exitY=1;entryX=0.5;entryY=0;rounded=0;" edge="1" parent="1" source="zgTsNmEp1greh_2oPF4o-2" target="zgTsNmEp1greh_2oPF4o-3">
          <mxGeometry relative="1" as="geometry">
            <Array as="points" />
          </mxGeometry>
        </mxCell>
        <mxCell id="zgTsNmEp1greh_2oPF4o-19" value="" style="curved=1;startArrow=none;endArrow=block;exitX=0.5;exitY=1;entryX=0.5;entryY=0;rounded=0;" edge="1" parent="1" source="zgTsNmEp1greh_2oPF4o-3" target="zgTsNmEp1greh_2oPF4o-4">
          <mxGeometry relative="1" as="geometry">
            <Array as="points" />
          </mxGeometry>
        </mxCell>
        <mxCell id="zgTsNmEp1greh_2oPF4o-20" value="" style="curved=1;startArrow=none;endArrow=block;exitX=0.5;exitY=1.01;entryX=0.5;entryY=0;rounded=0;" edge="1" parent="1" source="zgTsNmEp1greh_2oPF4o-4" target="zgTsNmEp1greh_2oPF4o-5">
          <mxGeometry relative="1" as="geometry">
            <Array as="points" />
          </mxGeometry>
        </mxCell>
        <mxCell id="zgTsNmEp1greh_2oPF4o-21" value="Ya" style="curved=1;startArrow=none;endArrow=block;exitX=0;exitY=0.7;entryX=0.5;entryY=0.01;rounded=0;" edge="1" parent="1" source="zgTsNmEp1greh_2oPF4o-5" target="zgTsNmEp1greh_2oPF4o-6">
          <mxGeometry relative="1" as="geometry">
            <Array as="points">
              <mxPoint x="247" y="715" />
            </Array>
          </mxGeometry>
        </mxCell>
        <mxCell id="zgTsNmEp1greh_2oPF4o-22" value="" style="curved=1;startArrow=none;endArrow=block;exitX=0.5;exitY=1.01;entryX=0;entryY=0.14;rounded=0;" edge="1" parent="1" source="zgTsNmEp1greh_2oPF4o-6" target="zgTsNmEp1greh_2oPF4o-7">
          <mxGeometry relative="1" as="geometry">
            <Array as="points">
              <mxPoint x="247" y="824" />
            </Array>
          </mxGeometry>
        </mxCell>
        <mxCell id="zgTsNmEp1greh_2oPF4o-23" value="Tidak" style="curved=1;startArrow=none;endArrow=block;exitX=1;exitY=0.34;entryX=1;entryY=0.91;rounded=0;" edge="1" parent="1" source="zgTsNmEp1greh_2oPF4o-7" target="zgTsNmEp1greh_2oPF4o-5">
          <mxGeometry relative="1" as="geometry">
            <Array as="points">
              <mxPoint x="785" y="824" />
              <mxPoint x="785" y="715" />
            </Array>
          </mxGeometry>
        </mxCell>
        <mxCell id="zgTsNmEp1greh_2oPF4o-24" value="Ya" style="curved=1;startArrow=none;endArrow=block;exitX=0.5;exitY=1;entryX=0.5;entryY=0;rounded=0;" edge="1" parent="1" source="zgTsNmEp1greh_2oPF4o-7" target="zgTsNmEp1greh_2oPF4o-8">
          <mxGeometry relative="1" as="geometry">
            <Array as="points" />
          </mxGeometry>
        </mxCell>
        <mxCell id="zgTsNmEp1greh_2oPF4o-25" value="GET /5/on" style="curved=1;startArrow=none;endArrow=block;exitX=0;exitY=0.67;entryX=0.5;entryY=0;rounded=0;" edge="1" parent="1" source="zgTsNmEp1greh_2oPF4o-8" target="zgTsNmEp1greh_2oPF4o-9">
          <mxGeometry relative="1" as="geometry">
            <Array as="points">
              <mxPoint x="101" y="1291" />
            </Array>
          </mxGeometry>
        </mxCell>
        <mxCell id="zgTsNmEp1greh_2oPF4o-26" value="GET /5/off" style="curved=1;startArrow=none;endArrow=block;exitX=0.05;exitY=1;entryX=0.5;entryY=0;rounded=0;" edge="1" parent="1" source="zgTsNmEp1greh_2oPF4o-8" target="zgTsNmEp1greh_2oPF4o-10">
          <mxGeometry relative="1" as="geometry">
            <Array as="points">
              <mxPoint x="316" y="1291" />
            </Array>
          </mxGeometry>
        </mxCell>
        <mxCell id="zgTsNmEp1greh_2oPF4o-27" value="GET /4/on" style="curved=1;startArrow=none;endArrow=block;exitX=1;exitY=0.95;entryX=0.5;entryY=0;rounded=0;" edge="1" parent="1" source="zgTsNmEp1greh_2oPF4o-8" target="zgTsNmEp1greh_2oPF4o-11">
          <mxGeometry relative="1" as="geometry">
            <Array as="points">
              <mxPoint x="531" y="1291" />
            </Array>
          </mxGeometry>
        </mxCell>
        <mxCell id="zgTsNmEp1greh_2oPF4o-28" value="GET /4/off" style="curved=1;startArrow=none;endArrow=block;exitX=1;exitY=0.66;entryX=0.5;entryY=0;rounded=0;" edge="1" parent="1" source="zgTsNmEp1greh_2oPF4o-8" target="zgTsNmEp1greh_2oPF4o-12">
          <mxGeometry relative="1" as="geometry">
            <Array as="points">
              <mxPoint x="746" y="1291" />
            </Array>
          </mxGeometry>
        </mxCell>
        <mxCell id="zgTsNmEp1greh_2oPF4o-29" value="" style="curved=1;startArrow=none;endArrow=block;exitX=0.5;exitY=1;entryX=0;entryY=0.13;rounded=0;" edge="1" parent="1" source="zgTsNmEp1greh_2oPF4o-9" target="zgTsNmEp1greh_2oPF4o-13">
          <mxGeometry relative="1" as="geometry">
            <Array as="points">
              <mxPoint x="101" y="1400" />
            </Array>
          </mxGeometry>
        </mxCell>
        <mxCell id="zgTsNmEp1greh_2oPF4o-30" value="" style="curved=1;startArrow=none;endArrow=block;exitX=0.5;exitY=1;entryX=0.28;entryY=0;rounded=0;" edge="1" parent="1" source="zgTsNmEp1greh_2oPF4o-10" target="zgTsNmEp1greh_2oPF4o-13">
          <mxGeometry relative="1" as="geometry">
            <Array as="points">
              <mxPoint x="316" y="1400" />
            </Array>
          </mxGeometry>
        </mxCell>
        <mxCell id="zgTsNmEp1greh_2oPF4o-31" value="" style="curved=1;startArrow=none;endArrow=block;exitX=0.5;exitY=1;entryX=0.73;entryY=0;rounded=0;" edge="1" parent="1" source="zgTsNmEp1greh_2oPF4o-11" target="zgTsNmEp1greh_2oPF4o-13">
          <mxGeometry relative="1" as="geometry">
            <Array as="points">
              <mxPoint x="531" y="1400" />
            </Array>
          </mxGeometry>
        </mxCell>
        <mxCell id="zgTsNmEp1greh_2oPF4o-32" value="" style="curved=1;startArrow=none;endArrow=block;exitX=0.5;exitY=1;entryX=1;entryY=0.13;rounded=0;" edge="1" parent="1" source="zgTsNmEp1greh_2oPF4o-12" target="zgTsNmEp1greh_2oPF4o-13">
          <mxGeometry relative="1" as="geometry">
            <Array as="points">
              <mxPoint x="746" y="1400" />
            </Array>
          </mxGeometry>
        </mxCell>
        <mxCell id="zgTsNmEp1greh_2oPF4o-33" value="" style="curved=1;startArrow=none;endArrow=block;exitX=0.5;exitY=1.01;entryX=0.5;entryY=0.01;rounded=0;" edge="1" parent="1" source="zgTsNmEp1greh_2oPF4o-13" target="zgTsNmEp1greh_2oPF4o-14">
          <mxGeometry relative="1" as="geometry">
            <Array as="points" />
          </mxGeometry>
        </mxCell>
        <mxCell id="zgTsNmEp1greh_2oPF4o-34" value="" style="curved=1;startArrow=none;endArrow=block;exitX=0.5;exitY=1.01;entryX=0.09;entryY=0.01;rounded=0;" edge="1" parent="1" source="zgTsNmEp1greh_2oPF4o-14" target="zgTsNmEp1greh_2oPF4o-15">
          <mxGeometry relative="1" as="geometry">
            <Array as="points">
              <mxPoint x="424" y="1596" />
            </Array>
          </mxGeometry>
        </mxCell>
        <mxCell id="zgTsNmEp1greh_2oPF4o-35" value="" style="curved=1;startArrow=none;endArrow=block;exitX=1;exitY=0.12;entryX=1;entryY=0.77;rounded=0;" edge="1" parent="1" source="zgTsNmEp1greh_2oPF4o-15" target="zgTsNmEp1greh_2oPF4o-5">
          <mxGeometry relative="1" as="geometry">
            <Array as="points">
              <mxPoint x="871" y="1596" />
              <mxPoint x="871" y="715" />
            </Array>
          </mxGeometry>
        </mxCell>
        <mxCell id="zgTsNmEp1greh_2oPF4o-36" value="Tidak" style="curved=1;startArrow=none;endArrow=block;exitX=0.72;exitY=1;entryX=0.5;entryY=0.01;rounded=0;" edge="1" parent="1" source="zgTsNmEp1greh_2oPF4o-5" target="zgTsNmEp1greh_2oPF4o-16">
          <mxGeometry relative="1" as="geometry">
            <Array as="points">
              <mxPoint x="673" y="715" />
            </Array>
          </mxGeometry>
        </mxCell>
      </root>
    </mxGraphModel>
  </diagram>
</mxfile>
